# xmcd
#
# Track frame offsets:
#	150
#	29930
#	57045
#	73735
#	112475
#	142195
#	162692
#	183670
#	212372
#	237227
#
# Disc length: 3517 seconds
#
# Revision: 1270956646
# Processed by: cddbd v1.5.2PL0 Copyright (c) Steve Scherf et al.
# Submitted via: EZCDAudioConverter 8.0.2.1
#
DISCID=a50dbb0a
DTITLE=Nhật Trường - Tôi Và Dĩ Vãng
DYEAR=2007
DGENRE=
TTITLE0=Từ nửa vòng trái đất
TTITLE1=Tình đầu tình cuối
TTITLE2=Tình có như không
TTITLE3=Tôi Và Dĩ Vãng
TTITLE4=Đôi ngả đôi ta
TTITLE5=Cạn lời yêu dấu
TTITLE6=Rừng chưa thay lá
TTITLE7=Tình muộn
TTITLE8=Một đời yêu anh
TTITLE9=Lá thư
EXTD=
EXTT0=
EXTT1=
EXTT2=
EXTT3=
EXTT4=
EXTT5=
EXTT6=
EXTT7=
EXTT8=
EXTT9=
PLAYORDER=
